<svg id="Layer_1" data-name="Layer 1" xmlns="http://www.w3.org/2000/svg" xmlns:xlink="http://www.w3.org/1999/xlink" viewBox="0 0 544 410"><defs><style>.cls-1{fill:#b3b3b3;}.cls-2{fill:#af2b2d;}.cls-3{fill:#df2e31;}.cls-4{fill:#f2f2f2;}.cls-5{fill:#8bcbff;}.cls-6{fill:#b2deff;}.cls-7{fill:#0071ce;}.cls-8{fill:#dc8327;}.cls-9{fill:#f4b21b;}.cls-10{fill:#f2d864;}.cls-11{fill:#e9f7ff;}.cls-12{fill:#47a1ff;}.cls-13,.cls-29{fill:#fff;}.cls-14{fill:#ee1780;}.cls-15{fill:#f7df1e;}.cls-16{fill:#2ba977;}.cls-17{fill:#5382a1;}.cls-18{fill:#e76f00;}.cls-19{fill:none;}.cls-20{fill:#ce1978;}.cls-21,.cls-22,.cls-23,.cls-24,.cls-25,.cls-26,.cls-27,.cls-28,.cls-29,.cls-30,.cls-31,.cls-32,.cls-33,.cls-34,.cls-35,.cls-36,.cls-37,.cls-38,.cls-41,.cls-42,.cls-57,.cls-59{fill-rule:evenodd;}.cls-21{fill:url(#linear-gradient);}.cls-22{fill:url(#linear-gradient-2);}.cls-23{fill:url(#linear-gradient-3);}.cls-24{fill:url(#linear-gradient-4);}.cls-25{fill:url(#linear-gradient-5);}.cls-26{fill:url(#linear-gradient-6);}.cls-27{fill:url(#linear-gradient-7);}.cls-28{fill:url(#linear-gradient-8);}.cls-30{fill:url(#linear-gradient-9);}.cls-31{fill:url(#linear-gradient-10);}.cls-32{fill:url(#linear-gradient-11);}.cls-33{fill:url(#linear-gradient-12);}.cls-34{fill:#9e1209;}.cls-35{fill:url(#radial-gradient);}.cls-36{fill:url(#radial-gradient-2);}.cls-37{fill:url(#linear-gradient-13);}.cls-38{fill:url(#linear-gradient-14);}.cls-39{fill:#a4c639;}.cls-40{fill:#512bd4;}.cls-41{fill:#00387c;}.cls-42{fill:#ffce00;}.cls-43{fill:#e01e5a;}.cls-44{fill:#36c5f0;}.cls-45{fill:#2eb67d;}.cls-46{fill:#ecb22e;}.cls-47{fill:#efc820;}.cls-48{fill:#67b3ff;}.cls-49{fill:#341bb2;}.cls-50{fill:#f05138;}.cls-51{fill:#ce3121;}.cls-52{fill:#41b883;}.cls-53{fill:#34495e;}.cls-54{fill:#00d8ff;}.cls-55{fill:#e535ab;}.cls-56{fill:#639;}.cls-58{fill:#8993be;}.cls-59{fill:#232531;}</style><linearGradient id="linear-gradient" x1="241.89" y1="430.12" x2="229.9" y2="408.95" gradientTransform="translate(0 -107.58)" gradientUnits="userSpaceOnUse"><stop offset="0" stop-color="#fb7655"/><stop offset="0.41" stop-color="#e42b1e"/><stop offset="0.99" stop-color="#900"/><stop offset="1" stop-color="#900"/></linearGradient><linearGradient id="linear-gradient-2" x1="247.87" y1="412.33" x2="232.42" y2="401.96" gradientTransform="translate(0 -107.58)" gradientUnits="userSpaceOnUse"><stop offset="0" stop-color="#871101"/><stop offset="0.99" stop-color="#911209"/><stop offset="1" stop-color="#911209"/></linearGradient><linearGradient id="linear-gradient-3" x1="235.51" y1="430.75" x2="220.06" y2="420.39" xlink:href="#linear-gradient-2"/><linearGradient id="linear-gradient-4" x1="203.06" y1="404.82" x2="205.46" y2="420.39" gradientTransform="translate(0 -107.58)" gradientUnits="userSpaceOnUse"><stop offset="0" stop-color="#fff"/><stop offset="0.23" stop-color="#e57252"/><stop offset="0.46" stop-color="#de3b20"/><stop offset="0.99" stop-color="#a60003"/><stop offset="1" stop-color="#a60003"/></linearGradient><linearGradient id="linear-gradient-5" x1="219.54" y1="390.29" x2="220.42" y2="406.18" gradientTransform="translate(0 -107.58)" gradientUnits="userSpaceOnUse"><stop offset="0" stop-color="#fff"/><stop offset="0.23" stop-color="#e4714e"/><stop offset="0.56" stop-color="#be1a0d"/><stop offset="0.99" stop-color="#a80d00"/><stop offset="1" stop-color="#a80d00"/></linearGradient><linearGradient id="linear-gradient-6" x1="234.17" y1="375.6" x2="236.81" y2="386.99" gradientTransform="translate(0 -107.58)" gradientUnits="userSpaceOnUse"><stop offset="0" stop-color="#fff"/><stop offset="0.18" stop-color="#e46342"/><stop offset="0.4" stop-color="#c82410"/><stop offset="0.99" stop-color="#a80d00"/><stop offset="1" stop-color="#a80d00"/></linearGradient><linearGradient id="linear-gradient-7" x1="226.1" y1="371.6" x2="237.48" y2="365.9" gradientTransform="translate(0 -107.58)" gradientUnits="userSpaceOnUse"><stop offset="0" stop-color="#fff"/><stop offset="0.54" stop-color="#c81f11"/><stop offset="0.99" stop-color="#bf0905"/><stop offset="1" stop-color="#bf0905"/></linearGradient><linearGradient id="linear-gradient-8" x1="193.08" y1="400.86" x2="194.02" y2="410.24" gradientTransform="translate(0 -107.58)" gradientUnits="userSpaceOnUse"><stop offset="0" stop-color="#fff"/><stop offset="0.31" stop-color="#de4024"/><stop offset="0.99" stop-color="#bf190b"/><stop offset="1" stop-color="#bf190b"/></linearGradient><linearGradient id="linear-gradient-9" x1="186.64" y1="412.77" x2="230.69" y2="367.48" gradientTransform="translate(0 -107.58)" gradientUnits="userSpaceOnUse"><stop offset="0" stop-color="#bd0012"/><stop offset="0.07" stop-color="#fff"/><stop offset="0.17" stop-color="#fff"/><stop offset="0.27" stop-color="#c82f1c"/><stop offset="0.33" stop-color="#820c01"/><stop offset="0.46" stop-color="#a31601"/><stop offset="0.72" stop-color="#b31301"/><stop offset="0.99" stop-color="#e82609"/><stop offset="1" stop-color="#e82609"/></linearGradient><linearGradient id="linear-gradient-10" x1="220.39" y1="417.33" x2="207.12" y2="414.06" gradientTransform="translate(0 -107.58)" gradientUnits="userSpaceOnUse"><stop offset="0" stop-color="#8c0c01"/><stop offset="0.54" stop-color="#990c00"/><stop offset="0.99" stop-color="#a80d0e"/><stop offset="1" stop-color="#a80d0e"/></linearGradient><linearGradient id="linear-gradient-11" x1="243.18" y1="401.41" x2="231.39" y2="390.85" gradientTransform="translate(0 -107.58)" gradientUnits="userSpaceOnUse"><stop offset="0" stop-color="#7e110b"/><stop offset="0.99" stop-color="#9e0c00"/><stop offset="1" stop-color="#9e0c00"/></linearGradient><linearGradient id="linear-gradient-12" x1="247.51" y1="382.03" x2="241.63" y2="375.76" gradientTransform="translate(0 -107.58)" gradientUnits="userSpaceOnUse"><stop offset="0" stop-color="#79130d"/><stop offset="0.99" stop-color="#9e120b"/><stop offset="1" stop-color="#9e120b"/></linearGradient><radialGradient id="radial-gradient" cx="233.22" cy="391.06" r="14.44" gradientTransform="translate(0 -107.58)" gradientUnits="userSpaceOnUse"><stop offset="0" stop-color="#a80d00"/><stop offset="0.99" stop-color="#7e0e08"/><stop offset="1" stop-color="#7e0e08"/></radialGradient><radialGradient id="radial-gradient-2" cx="213.22" cy="410.09" r="19.2" gradientTransform="translate(0 -107.58)" gradientUnits="userSpaceOnUse"><stop offset="0" stop-color="#a30c00"/><stop offset="0.99" stop-color="#800e08"/><stop offset="1" stop-color="#800e08"/></radialGradient><linearGradient id="linear-gradient-13" x1="199.61" y1="424.89" x2="194.83" y2="408.66" gradientTransform="translate(0 -107.58)" gradientUnits="userSpaceOnUse"><stop offset="0" stop-color="#8b2114"/><stop offset="0.43" stop-color="#9e100a"/><stop offset="0.99" stop-color="#b3100c"/><stop offset="1" stop-color="#b3100c"/></linearGradient><linearGradient id="linear-gradient-14" x1="236.32" y1="371.1" x2="247.05" y2="375.84" gradientTransform="translate(0 -107.58)" gradientUnits="userSpaceOnUse"><stop offset="0" stop-color="#b31000"/><stop offset="0.44" stop-color="#910f08"/><stop offset="0.99" stop-color="#791c12"/><stop offset="1" stop-color="#791c12"/></linearGradient></defs><g id="g10"><g id="g12"><path id="path14" class="cls-1" d="M485.06,32.44l-27.82,9.78,4.4,36.45,23.45,12.89,23.57-13.07,4.39-36.44Z"/><path id="path16" class="cls-2" d="M510.28,44.16,485,35.54V88.48l21.19-11.73Z"/><path id="path18" class="cls-3" d="M460.37,44.31l3.76,32.6L485,88.48V35.54l-24.63,8.77Z"/><path id="path20" class="cls-4" d="M490.86,61.87,485,49.73l-5.12,12.14Zm2.21,5.1H477.66l-3.45,8.63-6.42.12L485,37.46l17.8,38.26h-5.94L493.07,67Z"/><path id="path22" class="cls-1" d="M485,37.46,485,49.73l5.81,12.15H485V67h8.08l3.77,8.75,6.14.11Z"/></g></g><path class="cls-5" d="M367.91,220.69h59.34a24.86,24.86,0,0,1,8.41,1.43A23.75,23.75,0,0,1,451,240.78a28.92,28.92,0,0,1,.29,4.64v57.87a26.94,26.94,0,0,1-.46,5.53,23.82,23.82,0,0,1-16.11,17.91,25.18,25.18,0,0,1-7.49,1.08c-1.13,0-59.46,0-60.34,0a24,24,0,0,1-12.05-4,24.32,24.32,0,0,1-8.16-9.38A23.6,23.6,0,0,1,344.27,304V244.5a22.25,22.25,0,0,1,2.22-10.25,23.71,23.71,0,0,1,8.07-9.41,23.43,23.43,0,0,1,12-4.06A6.52,6.52,0,0,1,367.91,220.69Z"/><path class="cls-6" d="M364,217.48h59.34a25.1,25.1,0,0,1,8.41,1.42,23.77,23.77,0,0,1,10.17,7.2A23.45,23.45,0,0,1,447,237.57a28.86,28.86,0,0,1,.3,4.64v57.87a26.85,26.85,0,0,1-.47,5.52,23.74,23.74,0,0,1-16.1,17.91,25,25,0,0,1-7.49,1.09c-1.13,0-59.47,0-60.34,0a23.81,23.81,0,0,1-12.05-4,24.06,24.06,0,0,1-8.16-9.37,23.61,23.61,0,0,1-2.39-10.42v-59.5A22.22,22.22,0,0,1,342.56,231a23.81,23.81,0,0,1,8.07-9.42,23.55,23.55,0,0,1,12-4.06A7.32,7.32,0,0,1,364,217.48Z"/><path class="cls-6" d="M364,217.48h59.34a25.1,25.1,0,0,1,8.41,1.42,23.77,23.77,0,0,1,10.17,7.2A23.45,23.45,0,0,1,447,237.57a28.86,28.86,0,0,1,.3,4.64v57.87a26.85,26.85,0,0,1-.47,5.52,23.74,23.74,0,0,1-16.1,17.91,25,25,0,0,1-7.49,1.09c-1.13,0-59.47,0-60.34,0a23.81,23.81,0,0,1-12.05-4,24.06,24.06,0,0,1-8.16-9.37,23.61,23.61,0,0,1-2.39-10.42v-59.5A22.22,22.22,0,0,1,342.56,231a23.81,23.81,0,0,1,8.07-9.42,23.55,23.55,0,0,1,12-4.06A7.32,7.32,0,0,1,364,217.48Z"/><path class="cls-7" d="M427.09,296.28a2.49,2.49,0,0,1-2.38-1.74,2.54,2.54,0,0,1,1.6-3.19,11.14,11.14,0,0,0,7.89-10.71,11.33,11.33,0,0,0-11.32-11.31c-.43,0-.92.06-1.45.09l-2.46.34-.35-2.46a21.57,21.57,0,0,0-41.31-5.08l-.64,1.54-1.65.06a14.11,14.11,0,0,0-13.78,14,14.28,14.28,0,0,0,8.21,12.91,2.52,2.52,0,1,1-2.09,4.58,19.17,19.17,0,0,1,6-36.43,26.37,26.37,0,0,1,23.93-15.09,26.76,26.76,0,0,1,25.87,20.51,16.28,16.28,0,0,1,4.76,31.79A2.92,2.92,0,0,1,427.09,296.28Z"/><path class="cls-8" d="M388.68,297.44h0c-.05,0-.08-.06-.14-.06h0a2,2,0,0,1-2-2V273.3h1.68a.44.44,0,0,0,.43-.43c0-.21-.08-.35-.23-.38l-8.12-5.6a.53.53,0,0,0-.49,0l-8.18,5.63a.43.43,0,0,0,.23.78h1.68v22.11a2.86,2.86,0,0,0,2.81,2.81H388.6a1.2,1.2,0,0,0,.29-.09h0a.39.39,0,0,0,.08-.29h0A.54.54,0,0,0,388.68,297.44Z"/><path class="cls-9" d="M406.26,297.44h0c-.06,0-.08-.06-.14-.06h0a2,2,0,0,1-2-2V278.23h1.68a.44.44,0,0,0,.43-.43c0-.2-.08-.35-.23-.38l-8.12-5.6a.53.53,0,0,0-.49,0l-8.21,5.66a.43.43,0,0,0,.23.78h1.68v17.18a2.86,2.86,0,0,0,2.81,2.81h12.22a1.2,1.2,0,0,0,.29-.09h0a.39.39,0,0,0,.08-.29h0A.43.43,0,0,0,406.26,297.44Z"/><path class="cls-10" d="M423.87,297.44h0c-.06,0-.09-.06-.14-.06h0a2,2,0,0,1-2-2V283.17h1.69a.45.45,0,0,0,.43-.44c0-.2-.09-.35-.23-.38l-8.12-5.6a.55.55,0,0,0-.5,0l-8.18,5.66a.39.39,0,0,0-.14.49.38.38,0,0,0,.37.29h1.69v12.25a2.85,2.85,0,0,0,2.81,2.81h12.21a1,1,0,0,0,.29-.09h0a.36.36,0,0,0,.09-.29h0A.66.66,0,0,0,423.87,297.44Z"/><path class="cls-11" d="M351.15,320.75l-.26-.17a24.06,24.06,0,0,1-8.16-9.37,23.61,23.61,0,0,1-2.39-10.42V290a26.94,26.94,0,0,0-3.12-.19H272a7.9,7.9,0,0,0-1.48.09,25.81,25.81,0,0,0-13.21,4.46,26.19,26.19,0,0,0-8.88,10.36A24.45,24.45,0,0,0,246,316v65.44a25.94,25.94,0,0,0,2.63,11.46,26.58,26.58,0,0,0,9,10.31,26.28,26.28,0,0,0,13.25,4.37c1,.05,65.12.05,66.37.05a27.6,27.6,0,0,0,8.23-1.2,26.17,26.17,0,0,0,17.72-19.7,29.34,29.34,0,0,0,.51-6.07V327.39a23.29,23.29,0,0,1-12.49-6.64Z"/><path class="cls-12" d="M362.94,324.56a23.93,23.93,0,0,1-11.79-3.81,23.29,23.29,0,0,0,12.49,6.64v-2.82Z"/><path class="cls-5" d="M363.32,311.86a26.18,26.18,0,0,0-16.85-20.53,26.63,26.63,0,0,0-6.13-1.37v10.83a23.61,23.61,0,0,0,2.39,10.42,24.06,24.06,0,0,0,8.16,9.37,23.81,23.81,0,0,0,12.05,4h.7V317A32.35,32.35,0,0,0,363.32,311.86Z"/><path class="cls-11" d="M272.78,296.14h62.28a26.25,26.25,0,0,1,8.83,1.49A25,25,0,0,1,360,317.22a30.63,30.63,0,0,1,.3,4.87v60.75a28.16,28.16,0,0,1-.48,5.8,25,25,0,0,1-16.91,18.8,26.42,26.42,0,0,1-7.86,1.14c-1.19,0-62.42,0-63.34-.05A25.12,25.12,0,0,1,259,404.36a25.42,25.42,0,0,1-8.56-9.84A24.77,24.77,0,0,1,248,383.59V321.13a23.44,23.44,0,0,1,2.33-10.76,24.9,24.9,0,0,1,8.48-9.89,24.64,24.64,0,0,1,12.6-4.26A8.11,8.11,0,0,1,272.78,296.14Z"/><path class="cls-13" d="M268.66,292.76h62.28a26.3,26.3,0,0,1,8.83,1.5,24.92,24.92,0,0,1,16.07,19.59,29.51,29.51,0,0,1,.31,4.87v60.75a28.78,28.78,0,0,1-.48,5.79,25,25,0,0,1-16.91,18.8,26.48,26.48,0,0,1-7.87,1.14c-1.18,0-62.41,0-63.33,0A25.09,25.09,0,0,1,254.91,401a25.45,25.45,0,0,1-8.57-9.84,24.77,24.77,0,0,1-2.5-10.94V317.75A23.24,23.24,0,0,1,246.17,307a25,25,0,0,1,8.47-9.88,24.62,24.62,0,0,1,12.61-4.26A7.17,7.17,0,0,1,268.66,292.76Z"/><g id="Logos"><path class="cls-13" d="M299.13,318.82h30.08v30.73H299.13q0-15.39,0-30.73Zm-31.86,32.52c10,.06,20.05,0,30.06,0v30.7a30.37,30.37,0,0,1-19.07-7.4,31.79,31.79,0,0,1-10.8-19.95,20.17,20.17,0,0,1-.19-3.38Zm31.86.06h30.08a31.65,31.65,0,0,1-6.87,19,31.16,31.16,0,0,1-18,11.13,33.45,33.45,0,0,1-5.17.61q-.09-15.33,0-30.73Z"/><path class="cls-14" d="M288.6,309.08a52.06,52.06,0,0,1,8.64-1.18H328.7c3.74,0,7.51-.12,11.28.09v42.53a43.41,43.41,0,0,1-6.45,22.72,41.58,41.58,0,0,1-34,19.81,43.09,43.09,0,0,1-13.78-2,42.38,42.38,0,0,1-28.14-31.42,43.4,43.4,0,0,1,2.8-26.81,41.76,41.76,0,0,1,28.23-23.76m10.53,9.74v30.73h30.08V318.82H299.13m-31.86,32.52a15.35,15.35,0,0,0,.19,3.38,31.79,31.79,0,0,0,10.8,19.95,30.31,30.31,0,0,0,19.07,7.4v-30.7c-10-.06-20.05,0-30.06,0m31.86.06q0,15.38,0,30.73a37.58,37.58,0,0,0,5.17-.61,31.45,31.45,0,0,0,24.88-30.12Z"/></g><path class="cls-15" d="M331.08,16.12H434.67V119.71H331.08Z"/><path d="M358.31,102.68l7.93-4.82c1.54,2.71,2.92,5,6.27,5s5.22-1.26,5.22-6.11V63.67h9.76V96.89c0,10.07-5.91,14.69-14.53,14.69-7.81,0-12.34-4-14.65-8.9"/><path d="M392.75,101.66l7.93-4.61c2.1,3.4,4.81,5.91,9.59,5.91,4,0,6.59-2,6.59-4.82,0-3.31-2.63-4.53-7.08-6.47l-2.43-1c-7-3-11.69-6.76-11.69-14.69,0-7.28,5.54-12.87,14.24-12.87,6.19,0,10.64,2.15,13.84,7.77l-7.57,4.86c-1.65-3-3.48-4.17-6.27-4.17s-4.65,1.82-4.65,4.17c0,2.91,1.82,4.08,6,5.9l2.43,1.06c8.25,3.56,12.94,7.16,12.94,15.29,0,8.78-6.87,13.56-16.14,13.56-9,.08-14.89-4.21-17.72-9.84"/><path class="cls-16" d="M497.88,233.88h11.45V286.3a75.51,75.51,0,0,1-14.82,1.53c-14,0-21.27-6.26-21.27-18.23,0-11.55,7.71-19,19.66-19a19.92,19.92,0,0,1,5,.57Zm.42,26.71a11.5,11.5,0,0,0-3.87-.57c-5.79,0-9.14,3.53-9.14,9.71,0,6,3.19,9.35,9.06,9.35a28.16,28.16,0,0,0,3.92-.29v-18.2Z"/><path class="cls-16" d="M528,252V278.2c0,9-.67,13.39-2.67,17.13S521,301.2,516,303.72l-10.59-5c5-2.34,7.5-4.41,9.06-7.58s2.15-7,2.15-16.85V252H528Z"/><path class="cls-16" d="M515.46,233.88h11.45v11.63H515.46V233.88Z"/><path class="cls-11" d="M45.6,273.36h62.28a26.29,26.29,0,0,1,8.83,1.49,25,25,0,0,1,16.08,19.59,30.75,30.75,0,0,1,.3,4.88v60.74a28.16,28.16,0,0,1-.48,5.8,25,25,0,0,1-16.91,18.8,26.42,26.42,0,0,1-7.86,1.14c-1.19,0-62.42,0-63.34,0a25,25,0,0,1-12.65-4.18,25.4,25.4,0,0,1-8.56-9.83,24.81,24.81,0,0,1-2.51-10.94V298.35a23.49,23.49,0,0,1,2.33-10.76,24.94,24.94,0,0,1,8.48-9.88,24.55,24.55,0,0,1,12.6-4.26A7.22,7.22,0,0,1,45.6,273.36Z"/><path class="cls-13" d="M41.48,270h62.28a26.29,26.29,0,0,1,8.83,1.49,24.92,24.92,0,0,1,16.07,19.59,29.51,29.51,0,0,1,.31,4.87v60.75a28.88,28.88,0,0,1-.48,5.8,25,25,0,0,1-16.91,18.8,26.48,26.48,0,0,1-7.87,1.14c-1.18,0-62.41,0-63.33-.05a25,25,0,0,1-12.65-4.17,25.38,25.38,0,0,1-8.57-9.84,24.76,24.76,0,0,1-2.5-10.93V295A23.21,23.21,0,0,1,19,284.22a24.82,24.82,0,0,1,21.08-14.15A8,8,0,0,1,41.48,270Z"/><path class="cls-17" d="M58.24,348.25s-3.24,1.89,2.31,2.52c6.73.77,10.16.65,17.6-.75a29.87,29.87,0,0,0,4.66,2.29c-16.62,7.13-37.62-.4-24.57-4.06"/><path class="cls-17" d="M56.2,339s-3.63,2.69,1.92,3.26a68.42,68.42,0,0,0,22.69-1.09,9.7,9.7,0,0,0,3.49,2.12c-20.08,5.9-42.49.49-28.1-4.29"/><path class="cls-18" d="M73.34,323.19c4.09,4.72-1.08,8.95-1.08,8.95s10.41-5.38,5.63-12.1c-4.46-6.27-7.9-9.39,10.64-20.14,0,0-29.09,7.26-15.19,23.29"/><path class="cls-17" d="M95.34,355.12s2.41,2-2.63,3.51c-9.58,2.92-39.94,3.78-48.38.12-3-1.32,2.66-3.15,4.44-3.52a10.94,10.94,0,0,1,2.91-.31c-3.37-2.38-21.77,4.66-9.35,6.66,33.9,5.49,61.8-2.49,53-6.46"/><path class="cls-17" d="M59.81,329.31s-15.45,3.66-5.47,5c4.21.57,12.59.42,20.43-.23,6.38-.55,12.82-1.69,12.82-1.69a26.89,26.89,0,0,0-3.89,2.09c-15.68,4.12-45.95,2.2-37.25-2a29.15,29.15,0,0,1,13.36-3.17"/><path class="cls-17" d="M87.5,344.79c15.94-8.27,8.56-16.25,3.44-15.17a11.89,11.89,0,0,0-1.83.49,2.79,2.79,0,0,1,1.37-1.06c10.19-3.58,18,10.56-3.29,16.14a1.38,1.38,0,0,0,.31-.4"/><path class="cls-18" d="M77.89,282.56s8.81,8.84-8.38,22.4c-13.79,10.9-3.15,17.11,0,24.21-8-7.27-14-13.65-10-19.6,5.81-8.76,21.92-13,18.37-27"/><path class="cls-17" d="M61.35,367.25c15.31,1,38.8-.55,39.34-7.79,0,0-1,2.75-12.64,4.93a125.83,125.83,0,0,1-38.71.6s2,1.6,12,2.26"/><path class="cls-5" d="M199.08,245.11h51a21.45,21.45,0,0,1,7.23,1.22,20.39,20.39,0,0,1,13.16,16,24.3,24.3,0,0,1,.25,4v49.73a23.62,23.62,0,0,1-.39,4.75,20.48,20.48,0,0,1-13.85,15.39,21.8,21.8,0,0,1-6.43.93c-1,0-51.09,0-51.85,0a20.46,20.46,0,0,1-10.35-3.41,20.86,20.86,0,0,1-7-8.06,20.33,20.33,0,0,1-2-8.95V265.56a19,19,0,0,1,1.9-8.81,20.47,20.47,0,0,1,6.94-8.08,20.11,20.11,0,0,1,10.32-3.49A6.13,6.13,0,0,1,199.08,245.11Z"/><path class="cls-11" d="M246.17,307a25,25,0,0,1,8.47-9.88,24.62,24.62,0,0,1,12.61-4.26,7.17,7.17,0,0,1,1.41-.09h2V266.35a24.3,24.3,0,0,0-.25-4,20.39,20.39,0,0,0-13.16-16,21.45,21.45,0,0,0-7.23-1.22h-51a6.13,6.13,0,0,0-1.15.07,20.11,20.11,0,0,0-10.32,3.49,20.43,20.43,0,0,0-6.94,8.09,19,19,0,0,0-1.9,8.8v51.13a20.33,20.33,0,0,0,2,8.95,20.86,20.86,0,0,0,7,8.06,20.46,20.46,0,0,0,10.35,3.41c.6,0,32,0,45.66,0v-19.4A23.24,23.24,0,0,1,246.17,307Z"/><path class="cls-19" d="M299.13,349.55h30.08V318.82H299.13Z"/><path class="cls-19" d="M299.13,382.13a37.58,37.58,0,0,0,5.17-.61,31.45,31.45,0,0,0,24.88-30.12H299.13Q299.09,366.78,299.13,382.13Z"/><path class="cls-19" d="M267.27,351.34a15.35,15.35,0,0,0,.19,3.38,31.79,31.79,0,0,0,10.8,19.95,30.31,30.31,0,0,0,19.07,7.4v-30.7C287.32,351.31,277.28,351.4,267.27,351.34Z"/><path class="cls-11" d="M270.6,318.67c.08-.86.1-1.73.1-2.59V292.76h-2a7.17,7.17,0,0,0-1.41.09,24.62,24.62,0,0,0-12.61,4.26,25,25,0,0,0-8.47,9.88,23.24,23.24,0,0,0-2.33,10.76v19.4H250a21.8,21.8,0,0,0,6.43-.93,21.12,21.12,0,0,0,3-1.25q.4-1.08.87-2.13A41.68,41.68,0,0,1,270.6,318.67Z"/><path class="cls-20" d="M265.45,330.43a20.34,20.34,0,0,0,4.86-9.6,17.51,17.51,0,0,0,.29-2.16,41.68,41.68,0,0,0-10.23,14.17q-.47,1.05-.87,2.13A20.29,20.29,0,0,0,265.45,330.43Z"/><path class="cls-6" d="M195.7,243.63h51a21.36,21.36,0,0,1,7.22,1.23,20.39,20.39,0,0,1,13.16,16,24.32,24.32,0,0,1,.26,4v49.73a23.47,23.47,0,0,1-.4,4.74,20.44,20.44,0,0,1-13.84,15.39,21.55,21.55,0,0,1-6.44.94c-1,0-51.09,0-51.85,0a20.62,20.62,0,0,1-10.35-3.41,20.83,20.83,0,0,1-7-8.06,20.24,20.24,0,0,1-2.05-8.95V264.09a19.1,19.1,0,0,1,1.9-8.81,20.57,20.57,0,0,1,6.94-8.09,20.23,20.23,0,0,1,10.32-3.49A6.18,6.18,0,0,1,195.7,243.63Z"/><path class="cls-5" d="M269.84,84.59h56.55a23.79,23.79,0,0,1,8,1.35A22.66,22.66,0,0,1,349,103.73a28.64,28.64,0,0,1,.27,4.43v55.16a26.43,26.43,0,0,1-.43,5.26,22.7,22.7,0,0,1-15.36,17.07,23.92,23.92,0,0,1-7.14,1c-1.08,0-56.67,0-57.51,0a22.58,22.58,0,0,1-19.26-12.73A22.44,22.44,0,0,1,247.3,164V107.28a21.11,21.11,0,0,1,2.12-9.77,22.65,22.65,0,0,1,7.69-9,22.37,22.37,0,0,1,11.45-3.86A6.67,6.67,0,0,1,269.84,84.59Z"/><path class="cls-11" d="M266.09,82h56.56a24,24,0,0,1,8,1.35,22.54,22.54,0,0,1,9.69,6.86,22.31,22.31,0,0,1,4.91,10.93,27.47,27.47,0,0,1,.28,4.43v55.16a25.72,25.72,0,0,1-.44,5.26,22.67,22.67,0,0,1-15.35,17.07,24,24,0,0,1-7.14,1c-1.08,0-56.68,0-57.52,0a22.8,22.8,0,0,1-11.48-3.79,23.06,23.06,0,0,1-7.78-8.93,22.57,22.57,0,0,1-2.27-9.93V104.71a21.23,21.23,0,0,1,2.11-9.77,22.66,22.66,0,0,1,7.7-9,22.29,22.29,0,0,1,11.45-3.87A6.52,6.52,0,0,1,266.09,82Z"/><polygon id="polygon3282" class="cls-21" points="235.99 298.11 203.54 317.38 245.55 314.53 248.79 272.16 235.99 298.11"/><polygon id="polygon3293" class="cls-22" points="245.62 314.51 242.03 289.57 232.2 302.56 245.62 314.51"/><polygon id="polygon3304" class="cls-23" points="245.67 314.51 219.22 312.42 203.69 317.31 245.67 314.51"/><polygon id="polygon3319" class="cls-24" points="203.73 317.34 210.33 295.68 195.8 298.78 203.73 317.34"/><polygon id="polygon3334" class="cls-25" points="232.17 302.64 226.1 278.82 208.7 295.13 232.17 302.64"/><polygon id="polygon3349" class="cls-26" points="247.42 279.16 230.97 265.71 226.39 280.53 247.42 279.16"/><polygon id="polygon3362" class="cls-27" points="239.73 260.94 230.06 266.26 223.95 260.87 239.73 260.94"/><polygon id="polygon3375" class="cls-28" points="191.96 306.04 196.01 298.66 192.75 289.86 191.96 306.04"/><path id="path3377" class="cls-29" d="M192.53,289.57l3.31,9.35,14.34-3.21,16.36-15.21,4.63-14.67-7.29-5.13-12.38,4.63c-3.88,3.62-11.46,10.79-11.72,10.93S194.79,285.32,192.53,289.57Z"/><path id="path3400" class="cls-30" d="M204.12,272.76c8.44-8.37,19.32-13.31,23.5-9.11s-.27,14.46-8.71,22.82-19.18,13.6-23.35,9.38S195.68,281.13,204.12,272.76Z"/><path id="path3413" class="cls-31" d="M203.73,317.31l6.55-21.72,21.77,7C224.19,310,215.43,316.23,203.73,317.31Z"/><path id="path3424" class="cls-32" d="M226.54,280.46l5.58,22.13c6.57-6.91,12.47-14.34,15.37-23.55C247.52,279.07,226.54,280.46,226.54,280.46Z"/><path id="path3435" class="cls-33" d="M247.45,279.19c2.23-6.77,2.75-16.45-7.8-18.25L231,265.71Z"/><path id="path3437" class="cls-34" d="M192,306c.31,11.15,8.34,11.31,11.77,11.41l-7.91-18.46Z"/><path id="path3448" class="cls-35" d="M226.59,280.5c5,3.12,15.25,9.36,15.44,9.48s4.39-6.86,5.32-10.84C247.35,279.11,226.59,280.5,226.59,280.5Z"/><path id="path3459" class="cls-36" d="M210.28,295.61l8.78,16.91A56.41,56.41,0,0,0,232,302.61Z"/><path id="path3472" class="cls-37" d="M195.8,298.9l-1.25,14.79c2.35,3.19,5.56,3.48,8.94,3.24C201.05,310.84,196.18,298.66,195.8,298.9Z"/><path id="path3485" class="cls-38" d="M231,265.76l17.41,2.44c-.94-3.93-3.79-6.47-8.66-7.26Z"/><ellipse class="cls-39" cx="55.29" cy="51.12" rx="18.64" ry="17.23"/><path class="cls-13" d="M55.29,69.84c-11.1,0-20.13-8.4-20.13-18.7s9-18.71,20.13-18.71,20.13,8.39,20.13,18.69S66.39,69.84,55.29,69.84Zm0-34.44c-9.47,0-17.19,7.06-17.19,15.74s7.72,15.75,17.19,15.75,17.18-7.06,17.18-15.75S64.75,35.4,55.29,35.4Z"/><path class="cls-39" d="M41.15,46.84H69.43a4.51,4.51,0,0,1,4.5,4.5V79.62a4.51,4.51,0,0,1-4.5,4.5H41.15a4.51,4.51,0,0,1-4.51-4.5V51.34A4.48,4.48,0,0,1,41.15,46.84Z"/><path class="cls-13" d="M69.43,85.61H41.15a6,6,0,0,1-6-6V51.34a6,6,0,0,1,6-6H69.43a6,6,0,0,1,6,6V79.62A6,6,0,0,1,69.43,85.61ZM41.15,48.3a3,3,0,0,0-3,3V79.62a3,3,0,0,0,3,3H69.43a3,3,0,0,0,3-3V51.34a3,3,0,0,0-3-3Z"/><path class="cls-39" d="M43.07,29.34h0a1.32,1.32,0,0,0-.51,1.8l7.25,13.09a1.32,1.32,0,0,0,2.31-1.29L44.87,29.85A1.34,1.34,0,0,0,43.07,29.34Z"/><path class="cls-13" d="M51,45.67a2.12,2.12,0,0,1-1.83-1.07L41.9,31.5a2,2,0,0,1-.17-1.58,2.06,2.06,0,0,1,1-1.24,2,2,0,0,1,1.58-.17,2,2,0,0,1,1.24,1L52.8,42.6A2,2,0,0,1,53,44.18a2,2,0,0,1-2,1.49ZM43.7,29.92a.77.77,0,0,0-.29.07.62.62,0,0,0-.24.83l7.25,13.1a.6.6,0,0,0,.8.24.52.52,0,0,0,.29-.37.62.62,0,0,0,0-.46L44.24,30.21A.62.62,0,0,0,43.7,29.92Z"/><path class="cls-39" d="M79.67,51.12h0A4.91,4.91,0,0,0,74.76,56V73.46a4.92,4.92,0,1,0,9.83,0V56A4.92,4.92,0,0,0,79.67,51.12Z"/><path class="cls-13" d="M79.67,79.13A5.65,5.65,0,0,1,74,73.49V56.06a5.65,5.65,0,1,1,11.29,0V73.49A5.62,5.62,0,0,1,79.67,79.13Zm0-27.26a4.19,4.19,0,0,0-4.18,4.19V73.49a4.19,4.19,0,0,0,8.37,0V56.06A4.19,4.19,0,0,0,79.67,51.87Z"/><path class="cls-39" d="M62.25,71h0a4.92,4.92,0,0,0-4.92,4.92V93.35a4.92,4.92,0,0,0,9.83,0V75.92A4.9,4.9,0,0,0,62.25,71Z"/><path class="cls-13" d="M62.25,99a5.65,5.65,0,0,1-5.65-5.65V76a5.65,5.65,0,1,1,11.29,0V93.37A5.61,5.61,0,0,1,62.25,99Zm0-27.26A4.19,4.19,0,0,0,58.06,76V93.37a4.19,4.19,0,1,0,8.37,0V76A4.18,4.18,0,0,0,62.25,71.76Z"/><path class="cls-39" d="M67.51,29.34h0a1.33,1.33,0,0,1,.51,1.8L60.76,44.23a1.31,1.31,0,0,1-1.8.51,1.33,1.33,0,0,1-.51-1.8L65.7,29.85A1.35,1.35,0,0,1,67.51,29.34Z"/><path class="cls-13" d="M59.59,45.67a1.78,1.78,0,0,1-1-.27,2.07,2.07,0,0,1-.81-2.82l7.26-13.07a2.07,2.07,0,0,1,2.82-.81h0a2.08,2.08,0,0,1,.8,2.83L61.42,44.6A2.1,2.1,0,0,1,59.59,45.67Zm7.28-15.75a.56.56,0,0,0-.51.32L59.11,43.33a.57.57,0,0,0,.24.8.56.56,0,0,0,.8-.24L67.41,30.8a.58.58,0,0,0-.25-.81A.73.73,0,0,0,66.87,29.92Z"/><path class="cls-39" d="M30.9,51.12h0A4.92,4.92,0,0,1,35.82,56V73.46a4.92,4.92,0,0,1-9.84,0V56A4.92,4.92,0,0,1,30.9,51.12Z"/><path class="cls-13" d="M30.9,79.13a5.65,5.65,0,0,1-5.65-5.64V56.06a5.65,5.65,0,1,1,11.3,0V73.49A5.65,5.65,0,0,1,30.9,79.13Zm0-27.26a4.2,4.2,0,0,0-4.19,4.19V73.49a4.19,4.19,0,1,0,8.38,0V56A4.2,4.2,0,0,0,30.9,51.87Z"/><path class="cls-39" d="M48.33,71h0a4.92,4.92,0,0,1,4.91,4.92V93.35a4.92,4.92,0,0,1-9.83,0V75.92A4.91,4.91,0,0,1,48.33,71Z"/><path class="cls-13" d="M48.33,99a5.65,5.65,0,0,1-5.65-5.65V76A5.65,5.65,0,1,1,54,76V93.37A5.65,5.65,0,0,1,48.33,99Zm0-27.26A4.18,4.18,0,0,0,44.14,76V93.37a4.19,4.19,0,1,0,8.37,0V76A4.21,4.21,0,0,0,48.33,71.76Z"/><ellipse class="cls-39" cx="55.29" cy="51.12" rx="18.64" ry="17.23"/><path class="cls-39" d="M41.15,46.84H69.43a4.51,4.51,0,0,1,4.5,4.5V79.62a4.51,4.51,0,0,1-4.5,4.5H41.15a4.51,4.51,0,0,1-4.51-4.5V51.34A4.48,4.48,0,0,1,41.15,46.84Z"/><rect class="cls-13" x="35.33" y="50.88" width="38.94" height="1.48"/><circle class="cls-13" cx="46.21" cy="42.48" r="0.83"/><path class="cls-13" d="M46.21,44a1.56,1.56,0,1,1,1.56-1.56A1.56,1.56,0,0,1,46.21,44Zm0-1.63a.07.07,0,0,0-.07.07.07.07,0,0,0,.07.07.07.07,0,0,0,.07-.07S46.26,42.41,46.21,42.41Z"/><circle class="cls-13" cx="63.42" cy="42.48" r="0.83"/><path class="cls-13" d="M63.42,44A1.56,1.56,0,1,1,65,42.48,1.55,1.55,0,0,1,63.42,44Zm0-1.63a.09.09,0,0,0-.08.07.08.08,0,0,0,.08.07s.07,0,.07-.07S63.46,42.41,63.42,42.41Z"/><rect class="cls-40" x="257.71" y="199.82" width="76.55" height="76.55"/><path class="cls-13" d="M271.35,248.72a1.85,1.85,0,0,1-1.38-.55,1.79,1.79,0,0,1,0-2.64,2,2,0,0,1,2.76,0,1.79,1.79,0,0,1,0,2.64A1.83,1.83,0,0,1,271.35,248.72Z"/><path class="cls-13" d="M293,248.43h-3.51l-9.26-14.62a5.91,5.91,0,0,1-.58-1.15h-.09a17.48,17.48,0,0,1,.12,2.74v13h-3.14V228.55h3.74l9,14.27a11.55,11.55,0,0,1,.72,1.21H290a17.83,17.83,0,0,1-.14-2.68v-12.8H293v19.88Z"/><path class="cls-13" d="M308.16,248.43H297.25V228.55H307.7v2.79h-7.25V237h6.67v2.79h-6.67v5.87h7.68v2.79Z"/><path class="cls-13" d="M323.64,231.34h-5.58v17.09h-3.22V231.34h-5.56v-2.79h14.36Z"/><path class="cls-6" d="M211.56,179.35H101.79a8,8,0,0,1-8.05-8.06V61.52a8,8,0,0,1,8.05-8.05H211.56a8,8,0,0,1,8.06,8.05V171.29A8,8,0,0,1,211.56,179.35Z"/><path class="cls-13" d="M207.83,175.61H98.06A8,8,0,0,1,90,167.55V57.79a8,8,0,0,1,8.06-8.06H207.83a8,8,0,0,1,8,8.06V167.55A8,8,0,0,1,207.83,175.61Z"/><g id="Page-1"><g id="Black-Next.js"><g id="next-black"><g id="EXT-_-Type-something" data-name="EXT-+-Type-something"><path id="EXT" d="M124,96.82h20.57v1.61H125.9v12.24h17.58v1.61H125.9v13.44h18.92v1.61H124Zm22.41,0h2.16l9.67,13.43,9.89-13.43,13.49-17.08L159.5,111.68l11.41,15.7h-2.25L158.3,113.06l-10.4,14.32h-2.21l11.51-15.7Zm25.36,1.61V96.82h23.43v1.61H184.4v28.95h-1.89V98.43Z"/><polygon id="Type-something" points="98.29 96.81 100.64 96.81 133.17 145.19 119.73 127.38 100.27 99.12 100.17 127.38 98.29 127.38 98.29 96.81"/></g><path id="_.JS" data-name=".JS" d="M195,125.26a.69.69,0,1,0-.69-.69A.7.7,0,0,0,195,125.26Zm1.84-1.8a2,2,0,0,0,4-.18v-4.65h-1v4.65c0,.74-.37,1.15-1,1.15a1,1,0,0,1-1-.92h-1Zm5.43,0c.1,1.19,1.06,1.93,2.53,1.93s2.54-.78,2.54-2.07c0-1-.56-1.52-1.94-1.84l-.73-.19c-.88-.18-1.2-.46-1.2-.92s.55-1,1.33-1,1.29.37,1.39,1h1a2.17,2.17,0,0,0-2.4-1.88c-1.42,0-2.39.78-2.39,2,0,1,.55,1.56,1.75,1.84l.87.18c.88.18,1.25.51,1.25,1s-.6,1-1.43,1-1.52-.42-1.56-1h-1Z"/></g></g></g><path class="cls-41" d="M295,100.64a42.56,42.56,0,0,0-7.37.63c-6.53,1.28-7.58,3.8-7.58,8.42v6.1h15.15v2.11h-21c-4.41,0-8.42,2.73-9.46,8.22a30.91,30.91,0,0,0,0,16.42c1,4.85,3.57,8.21,8.21,8.21h5.26v-7.37c0-5.25,4.41-10.1,9.46-10.1h15.15c4.21,0,7.57-3.8,7.57-8.21V109.69c0-4.41-3.57-7.58-7.57-8.42a47,47,0,0,0-7.78-.63Zm-7.78,6.73c1.28,0,2.32,1.48,2.32,3.37s-1,3.57-2.32,3.57-2.32-1.48-2.32-3.37C284.68,108.85,285.73,107.37,287.21,107.37Z"/><path class="cls-42" d="M314.78,118.74v7.17c0,5.48-4.41,10.1-9.46,10.1H290.17c-4.21,0-7.58,3.8-7.58,8.21V159.6c0,4.42,3.57,6.94,7.58,8.22a24.76,24.76,0,0,0,15.15,0c3.8-1.28,7.57-3.57,7.57-8.22v-6.09H297.74v-2.12h22.75c4.42,0,6.1-3.16,7.58-8.21,1.68-5.05,1.48-9.9,0-16.43-1.05-4.64-3.16-8.21-7.58-8.21A54.67,54.67,0,0,1,314.78,118.74ZM306,157.49c1.27,0,2.32,1.48,2.32,3.36s-1,3.37-2.32,3.37-2.32-1.48-2.32-3.37C303.43,159.17,304.48,157.49,306,157.49Z"/><path class="cls-43" d="M238.81,46.46A7.45,7.45,0,1,1,231.37,39h7.44Zm3.73,0a7.45,7.45,0,1,1,14.89,0V65.07a7.45,7.45,0,1,1-14.89,0Z"/><path class="cls-44" d="M250,16.54a7.45,7.45,0,1,1,7.45-7.45v7.45Zm0,3.78a7.45,7.45,0,1,1,0,14.89H231.31a7.45,7.45,0,0,1,0-14.89Z"/><path class="cls-45" d="M279.84,27.76a7.45,7.45,0,1,1,7.45,7.45h-7.45Zm-3.72,0a7.45,7.45,0,1,1-14.89,0V9.09a7.45,7.45,0,0,1,14.89,0Z"/><path class="cls-46" d="M268.68,57.62a7.45,7.45,0,1,1-7.45,7.45V57.62Zm0-3.72a7.45,7.45,0,1,1,0-14.89h18.69a7.45,7.45,0,1,1,0,14.89Z"/><path class="cls-47" d="M434.67,98.4a24.08,24.08,0,0,0-3.78,2.1,25,25,0,0,0-8.48,9.88,23.38,23.38,0,0,0-2.31,9.33h14.57Z"/><path class="cls-5" d="M345.54,156.88v3.87a25.72,25.72,0,0,1-.44,5.26,22.67,22.67,0,0,1-15.35,17.07,24,24,0,0,1-7.14,1c-.85,0-35.4,0-50.54,0v2.56c12,0,53.35,0,54.28,0a23.92,23.92,0,0,0,7.14-1,22.7,22.7,0,0,0,15.36-17.07,26.43,26.43,0,0,0,.43-5.26V119.71h-3.74Z"/><path class="cls-47" d="M349,103.73A22.4,22.4,0,0,0,344.1,92.8a22.72,22.72,0,0,0-6.61-5.46,22.62,22.62,0,0,1,7.77,13.82,27.47,27.47,0,0,1,.28,4.43v14.12h3.74V108.16A28.64,28.64,0,0,0,349,103.73Z"/><path class="cls-11" d="M247.3,107.28a21.11,21.11,0,0,1,2.12-9.77,22.65,22.65,0,0,1,7.69-9,22.28,22.28,0,0,1,11.45-3.86,6.67,6.67,0,0,1,1.28-.08h56.55a23.79,23.79,0,0,1,8,1.35,23.08,23.08,0,0,1,3.08,1.4,22.63,22.63,0,0,0-6.83-4,24,24,0,0,0-8-1.35H266.09a6.52,6.52,0,0,0-1.27.08A22.29,22.29,0,0,0,253.37,86a22.66,22.66,0,0,0-7.7,9,21.23,21.23,0,0,0-2.11,9.77v34.68h3.74Z"/><path class="cls-6" d="M215.88,139.39h3.74V61.52a8,8,0,0,0-4.55-7.24,7.91,7.91,0,0,1,.81,3.51Z"/><path class="cls-6" d="M98.06,175.61a8.08,8.08,0,0,1-3.51-.81,8,8,0,0,0,7.24,4.55H180.7v-3.74Z"/><path class="cls-13" d="M93.74,61.52a8,8,0,0,1,8.05-8.05H211.56a7.94,7.94,0,0,1,3.51.81,8,8,0,0,0-7.24-4.55H98.06A8,8,0,0,0,90,57.79V167.55a8,8,0,0,0,4.55,7.25,7.94,7.94,0,0,1-.81-3.51Z"/><path class="cls-48" d="M265.09,184.08a22.92,22.92,0,0,1-9.72-2.74,24.17,24.17,0,0,0,2,1.52,22.8,22.8,0,0,0,11.49,3.79h3.23V184.1Z"/><path class="cls-6" d="M245.83,171.36a23.06,23.06,0,0,0,7.78,8.93c.57.38,1.16.73,1.76,1.05a22.78,22.78,0,0,1-5.79-7.42A22.44,22.44,0,0,1,247.3,164v-24.6h-3.74v22A22.57,22.57,0,0,0,245.83,171.36Z"/><path class="cls-6" d="M271.82,156.54a19.94,19.94,0,0,0-4.39-9.79,20.24,20.24,0,0,0-8.69-6.15,21.36,21.36,0,0,0-7.18-1.21H247.3V164a22.44,22.44,0,0,0,2.28,9.93,22.78,22.78,0,0,0,5.79,7.42,22.92,22.92,0,0,0,9.72,2.74l7,0V160.5A23.94,23.94,0,0,0,271.82,156.54Z"/><path class="cls-49" d="M257.71,230l.21-.06a20.3,20.3,0,0,0,13.76-15.29,23.32,23.32,0,0,0,.39-4.72v-10.1H257.71Z"/><path class="cls-5" d="M219.62,171.29v-31.9h-3.74v28.16a8,8,0,0,1-8,8.06H180.7v3.74h30.86A8,8,0,0,0,219.62,171.29Z"/><path class="cls-6" d="M199.75,139.46a20.05,20.05,0,0,0-10.26,3.46,20.3,20.3,0,0,0-6.89,8,19,19,0,0,0-1.9,8.76v15.89h27.13a8,8,0,0,0,8-8.06V139.39h-15A6.08,6.08,0,0,0,199.75,139.46Z"/><path class="cls-50" d="M203.18,143.49H249.3a19.45,19.45,0,0,1,6.54,1.11,18.45,18.45,0,0,1,11.9,14.51,21.82,21.82,0,0,1,.23,3.61v45a21.25,21.25,0,0,1-.36,4.29,18.52,18.52,0,0,1-12.52,13.92,19.75,19.75,0,0,1-5.82.84c-.88,0-46.22,0-46.9,0a18.5,18.5,0,0,1-9.37-3.09,18.8,18.8,0,0,1-6.34-7.28,18.45,18.45,0,0,1-1.85-8.1V162a17.26,17.26,0,0,1,1.72-8,18.53,18.53,0,0,1,6.28-7.32,18.21,18.21,0,0,1,9.33-3.15A5.05,5.05,0,0,1,203.18,143.49Z"/><path class="cls-13" d="M231.74,156c27.45,18.67,18.57,39.26,18.57,39.26s7.8,8.81,4.65,16.52c0,0-3.22-5.4-8.62-5.4-5.2,0-8.26,5.4-18.73,5.4-23.32,0-34.35-19.48-34.35-19.48,21,13.82,35.36,4,35.36,4-9.47-5.49-29.6-31.77-29.6-31.77,17.53,14.92,25.11,18.86,25.11,18.86-4.52-3.74-17.21-22-17.21-22C217.07,171.66,237.23,186,237.23,186,243,170.13,231.74,156,231.74,156Z"/><path class="cls-11" d="M112.59,271.48a26.29,26.29,0,0,0-8.83-1.49H89.5a22.71,22.71,0,0,0,2.06,6.63,23.69,23.69,0,0,0,8,9.18,23.37,23.37,0,0,0,11.8,3.89l17.06,0a24.91,24.91,0,0,0-15.82-18.24Z"/><path class="cls-5" d="M177.29,255.28a19.1,19.1,0,0,0-1.9,8.81v25.16a24.08,24.08,0,0,0,2.37-.58,23.32,23.32,0,0,0,15.77-17.54,26.48,26.48,0,0,0,.46-5.41v-22a20.14,20.14,0,0,0-9.76,3.44A20.57,20.57,0,0,0,177.29,255.28Z"/><path class="cls-51" d="M193.7,204.51a23.23,23.23,0,0,0-8.89-14.92v18.79a18.48,18.48,0,0,0,1.85,8.1,18.8,18.8,0,0,0,6.34,7.28c.32.22.65.42,1,.61V209.06A29,29,0,0,0,193.7,204.51Z"/><path class="cls-48" d="M118,192h50.12a21.18,21.18,0,0,1,7.1,1.2,20.08,20.08,0,0,1,12.94,15.76,24.7,24.7,0,0,1,.25,3.93v48.88a22.78,22.78,0,0,1-.39,4.67,20.09,20.09,0,0,1-13.61,15.13,21.45,21.45,0,0,1-6.33.92c-1,0-50.23,0-51,0A20,20,0,0,1,100,271.15a20,20,0,0,1-2-8.8V212.09a18.77,18.77,0,0,1,1.88-8.66,20.1,20.1,0,0,1,6.82-8,19.82,19.82,0,0,1,10.14-3.43A6.08,6.08,0,0,1,118,192Z"/><path class="cls-11" d="M114.68,189.26H164.8a20.9,20.9,0,0,1,7.1,1.21,20.08,20.08,0,0,1,12.94,15.76,24.65,24.65,0,0,1,.25,3.92V259a22.74,22.74,0,0,1-.39,4.66,20.09,20.09,0,0,1-13.61,15.13,21.13,21.13,0,0,1-6.33.92c-.95,0-50.22,0-51,0a20.28,20.28,0,0,1-10.18-3.36,20.51,20.51,0,0,1-6.89-7.92,20,20,0,0,1-2-8.8V209.38a18.59,18.59,0,0,1,1.87-8.66,20.06,20.06,0,0,1,6.82-8,19.85,19.85,0,0,1,10.15-3.43A5.92,5.92,0,0,1,114.68,189.26Z"/><path class="cls-52" d="M148.16,210.51l-8.27,14.32-8.26-14.32H104.09l35.8,62,35.81-62Z"/><path class="cls-53" d="M148.16,210.51l-8.27,14.32-8.26-14.32H118.41l21.48,37.21,21.49-37.21Z"/><path class="cls-54" d="M410.52,161.92c-.71-.24-1.44-.46-2.2-.68.12-.52.24-1,.34-1.5,1.66-8.1.59-14.63-3.16-16.78-3.57-2.06-9.42.1-15.31,5.23-.57.49-1.13,1-1.72,1.57-.36-.37-.76-.71-1.12-1-6.19-5.53-12.38-7.86-16.13-5.68-3.57,2.06-4.62,8.2-3.1,15.88.14.74.31,1.49.51,2.28-.88.24-1.71.51-2.55.81-7.26,2.49-11.89,6.45-11.89,10.57s5,8.51,12.53,11.08c.59.2,1.22.39,1.86.59-.2.83-.39,1.64-.54,2.44-1.44,7.54-.32,13.54,3.26,15.59s9.86-.05,15.85-5.31c.47-.42,1-.86,1.42-1.32.61.59,1.25,1.15,1.86,1.69,5.82,5,11.57,7,15.12,5s4.87-8.57,3.33-16.4c-.12-.59-.24-1.2-.42-1.83l1.28-.4c7.85-2.59,13-6.8,13-11.1,0-4.12-4.77-8.1-12.18-10.65Zm-1.69,19-1.15.37a67.68,67.68,0,0,0-3.47-8.69,65.19,65.19,0,0,0,3.32-8.56c.71.19,1.37.41,2,.63,6.33,2.18,10.2,5.41,10.2,7.91,0,2.66-4.16,6.09-10.94,8.34ZM406,186.49a24.8,24.8,0,0,1,.32,9c-.42,2.2-1.23,3.67-2.26,4.26-2.15,1.25-6.77-.37-11.74-4.65-.56-.49-1.15-1-1.71-1.57a69.16,69.16,0,0,0,5.75-7.29,70.54,70.54,0,0,0,9.27-1.42c.12.52.24,1.08.37,1.62Zm-28.46,13.06c-2.1.74-3.79.76-4.8.18-2.15-1.25-3.05-6.07-1.83-12.51.15-.73.32-1.49.49-2.27a71.09,71.09,0,0,0,9.22,1.34,72,72,0,0,0,5.88,7.27c-.44.42-.89.83-1.3,1.2a24.33,24.33,0,0,1-7.66,4.79Zm-9.89-18.67a25.09,25.09,0,0,1-8-4.23c-1.68-1.44-2.57-2.91-2.57-4.06,0-2.5,3.72-5.68,9.94-7.83.76-.27,1.54-.51,2.35-.73a70.76,70.76,0,0,0,3.33,8.66,69.35,69.35,0,0,0-3.38,8.78c-.56-.22-1.13-.39-1.67-.59ZM371,158.35c-1.3-6.58-.44-11.55,1.71-12.8,2.3-1.32,7.37.57,12.7,5.31.34.3.69.61,1,1a72,72,0,0,0-5.85,7.21,74.08,74.08,0,0,0-9.15,1.42c-.15-.71-.3-1.42-.44-2.1Zm29.56,7.29c-.69-1.17-1.37-2.32-2.08-3.42a55,55,0,0,1,6.24,1.1,60.28,60.28,0,0,1-2.21,5.89c-.61-1.17-1.27-2.37-1.95-3.57ZM388.47,153.9c1.35,1.46,2.69,3.1,4,4.87-1.35-.08-2.69-.1-4.06-.1s-2.69,0-4,.1c1.35-1.77,2.69-3.38,4.06-4.87Zm-12.11,11.77c-.68,1.17-1.32,2.34-1.93,3.54a62.61,62.61,0,0,1-2.18-5.92c2-.44,4-.78,6.22-1.07-.74,1.12-1.45,2.27-2.11,3.45Zm2.15,17.49a63.77,63.77,0,0,1-6.31-1,63.36,63.36,0,0,1,2.23-6c.61,1.18,1.27,2.38,1.93,3.55h0c.69,1.18,1.42,2.35,2.15,3.5Zm10.06,8.3a63.88,63.88,0,0,1-4.11-5c1.32.05,2.64.08,4,.08s2.77,0,4.14-.1c-1.37,1.83-2.72,3.5-4,5Zm14-15.47a63,63,0,0,1,2.3,6,62.58,62.58,0,0,1-6.38,1.1c.71-1.12,1.42-2.3,2.1-3.47s1.35-2.45,2-3.65ZM398,178.14c-1.08,1.86-2.18,3.63-3.28,5.31-2,.15-4.14.22-6.27.22s-4.21-.07-6.21-.19c-1.15-1.69-2.28-3.48-3.35-5.31h0c-1.06-1.84-2-3.67-2.92-5.53.89-1.84,1.86-3.7,2.92-5.53h0c1-1.84,2.17-3.6,3.32-5.29,2-.14,4.14-.24,6.24-.24h0c2.13,0,4.21.07,6.24.24,1.13,1.67,2.25,3.43,3.31,5.26s2.05,3.7,3,5.51c-.91,1.86-1.91,3.69-3,5.55Zm6-32.66c2.3,1.32,3.18,6.65,1.73,13.65-.1.44-.19.91-.32,1.37a66.9,66.9,0,0,0-9.15-1.44,67.18,67.18,0,0,0-5.8-7.22c.54-.51,1.06-1,1.57-1.44,5.09-4.43,9.81-6.17,12-4.92Zm-15.59,21a6.12,6.12,0,1,1-6.12,6.12,6.12,6.12,0,0,1,6.12-6.12Z"/><rect class="cls-55" x="-15.98" y="182.58" width="94.15" height="4.88" transform="translate(-144.68 119.44) rotate(-60)"/><rect class="cls-55" x="4.46" y="218.03" width="94.15" height="4.88"/><rect class="cls-55" x="28.64" y="205.08" width="4.88" height="54.39" transform="translate(-185.62 143.05) rotate(-60)"/><rect class="cls-55" x="69.58" y="134.23" width="4.88" height="54.39" transform="translate(-103.79 143.07) rotate(-60)"/><rect class="cls-55" x="3.89" y="158.93" width="54.39" height="4.88" transform="translate(-76.52 37.16) rotate(-30)"/><rect class="cls-55" x="69.6" y="137.95" width="4.88" height="94.15" transform="translate(-82.86 60.81) rotate(-30)"/><rect class="cls-55" x="8.19" y="169.62" width="4.88" height="54.39"/><rect class="cls-55" x="90.05" y="169.62" width="4.88" height="54.39"/><rect class="cls-55" x="48.35" y="230.12" width="47.29" height="4.28" transform="translate(-106.49 67.12) rotate(-30)"/><path class="cls-55" d="M101.39,225.6a10.28,10.28,0,1,1-3.77-14,10.31,10.31,0,0,1,3.77,14"/><path class="cls-55" d="M19.48,178.3a10.27,10.27,0,1,1-3.76-14,10.27,10.27,0,0,1,3.76,14"/><path class="cls-55" d="M1.72,225.6a10.28,10.28,0,1,1,14,3.77,10.29,10.29,0,0,1-14-3.77"/><path class="cls-55" d="M83.63,178.3a10.27,10.27,0,1,1,14,3.77,10.29,10.29,0,0,1-14-3.77"/><path class="cls-55" d="M51.56,254.38a10.27,10.27,0,1,1,10.26-10.27,10.27,10.27,0,0,1-10.26,10.27"/><path class="cls-55" d="M51.56,159.79a10.27,10.27,0,1,1,10.26-10.27,10.27,10.27,0,0,1-10.26,10.27"/><path class="cls-5" d="M362.94,324.56a23.93,23.93,0,0,1-11.79-3.81,23.4,23.4,0,0,0,15.71,7c.61,0,28.12,0,45.79,0,.62-1.09,1.27-2.17,2-3.21C398.09,324.6,363.61,324.59,362.94,324.56Z"/><path class="cls-5" d="M441.9,226.1A23.45,23.45,0,0,1,447,237.57a28.86,28.86,0,0,1,.3,4.64v57.87q0,1.07-.06,2.13c1.31-.28,2.64-.52,4-.71V245.42a28.92,28.92,0,0,0-.29-4.64,23.72,23.72,0,0,0-10.49-16.24C441,225,441.45,225.56,441.9,226.1Z"/><path class="cls-6" d="M344.27,304V244.5a22.25,22.25,0,0,1,2.22-10.25,23.71,23.71,0,0,1,8.07-9.41,23.43,23.43,0,0,1,12-4.06,6.52,6.52,0,0,1,1.34-.09h59.34a24.86,24.86,0,0,1,8.41,1.43,23.39,23.39,0,0,1,4.82,2.42,23.75,23.75,0,0,0-8.75-5.64,25.1,25.1,0,0,0-8.41-1.42H364a7.32,7.32,0,0,0-1.34.08,23.55,23.55,0,0,0-12,4.06,23.81,23.81,0,0,0-8.07,9.42,22.22,22.22,0,0,0-2.22,10.25v59.5a23.61,23.61,0,0,0,2.39,10.42,24.06,24.06,0,0,0,8.16,9.37l.26.17a24.15,24.15,0,0,1-4.5-6.33A23.6,23.6,0,0,1,344.27,304Z"/><path class="cls-6" d="M414.62,324.6a53.12,53.12,0,0,1,32.66-22.39q.06-1.06.06-2.13V242.21a28.86,28.86,0,0,0-.3-4.64,23.45,23.45,0,0,0-5.14-11.47c-.45-.54-.93-1.06-1.42-1.56a23.39,23.39,0,0,0-4.82-2.42,24.86,24.86,0,0,0-8.41-1.43H367.91a6.52,6.52,0,0,0-1.34.09,23.43,23.43,0,0,0-12,4.06,23.71,23.71,0,0,0-8.07,9.41,22.25,22.25,0,0,0-2.22,10.25V304a23.6,23.6,0,0,0,2.38,10.42,24.15,24.15,0,0,0,4.5,6.33,23.93,23.93,0,0,0,11.79,3.81C363.61,324.59,398.09,324.6,414.62,324.6Zm-25.73-26.47a1.2,1.2,0,0,1-.29.09H376.38a2.86,2.86,0,0,1-2.81-2.81V273.3h-1.68a.43.43,0,0,1-.23-.78l8.18-5.63a.53.53,0,0,1,.49,0l8.12,5.6c.15,0,.23.17.23.38a.44.44,0,0,1-.43.43h-1.68v22.11a2,2,0,0,0,2,2c.06,0,.09.06.14.06a.54.54,0,0,1,.29.4A.39.39,0,0,1,388.89,298.13Zm17.55,0a1.2,1.2,0,0,1-.29.09H393.93a2.86,2.86,0,0,1-2.81-2.81V278.26h-1.68a.43.43,0,0,1-.23-.78l8.21-5.66a.53.53,0,0,1,.49,0l8.12,5.6c.15,0,.23.18.23.38a.44.44,0,0,1-.43.43h-1.68v17.18a2,2,0,0,0,2,2c.06,0,.08.06.14.06a.43.43,0,0,1,.26.43A.39.39,0,0,1,406.44,298.16Zm17.63,0a1,1,0,0,1-.29.09H411.57a2.85,2.85,0,0,1-2.81-2.81V283.19h-1.69a.38.38,0,0,1-.37-.29.39.39,0,0,1,.14-.49l8.18-5.66a.55.55,0,0,1,.5,0l8.12,5.6c.14,0,.23.18.23.38a.45.45,0,0,1-.43.44h-1.69v12.24a2,2,0,0,0,2,2s.08.06.14.06a.66.66,0,0,1,.29.43A.36.36,0,0,1,424.07,298.16Zm-67.79-20.27a19.19,19.19,0,0,1,17.09-19,26.37,26.37,0,0,1,23.93-15.09,26.76,26.76,0,0,1,25.87,20.51,16.28,16.28,0,0,1,4.76,31.79,2.92,2.92,0,0,1-.84.15,2.49,2.49,0,0,1-2.38-1.74,2.54,2.54,0,0,1,1.6-3.19,11.14,11.14,0,0,0,7.89-10.71,11.33,11.33,0,0,0-11.32-11.31c-.43,0-.92.06-1.45.09l-2.46.34-.35-2.46a21.57,21.57,0,0,0-41.31-5.08l-.64,1.54-1.65.06a14.11,14.11,0,0,0-13.78,14,14.28,14.28,0,0,0,8.21,12.91,2.52,2.52,0,1,1-2.09,4.58A19.27,19.27,0,0,1,356.28,277.89Z"/><path class="cls-7" d="M370.7,294.1a2.53,2.53,0,0,0-1.25-3.33,14.28,14.28,0,0,1-8.21-12.91,14.11,14.11,0,0,1,13.78-14l1.65-.06.64-1.54a21.57,21.57,0,0,1,41.31,5.08l.35,2.46,2.46-.34c.53,0,1-.09,1.45-.09a11.33,11.33,0,0,1,11.32,11.31,11.14,11.14,0,0,1-7.89,10.71,2.54,2.54,0,0,0-1.6,3.19,2.49,2.49,0,0,0,2.38,1.74,2.92,2.92,0,0,0,.84-.15,16.28,16.28,0,0,0-4.76-31.79,26.76,26.76,0,0,0-25.87-20.51,26.37,26.37,0,0,0-23.93,15.09,19.17,19.17,0,0,0-6,36.43A2.54,2.54,0,0,0,370.7,294.1Z"/><path class="cls-8" d="M388.68,297.44c-.05,0-.08-.06-.14-.06a2,2,0,0,1-2-2V273.3h1.68a.44.44,0,0,0,.43-.43c0-.21-.08-.35-.23-.38l-8.12-5.6a.53.53,0,0,0-.49,0l-8.18,5.63a.43.43,0,0,0,.23.78h1.68v22.11a2.86,2.86,0,0,0,2.81,2.81H388.6a1.2,1.2,0,0,0,.29-.09.39.39,0,0,0,.08-.29A.54.54,0,0,0,388.68,297.44Z"/><path class="cls-9" d="M406.26,297.44c-.06,0-.08-.06-.14-.06a2,2,0,0,1-2-2V278.23h1.68a.44.44,0,0,0,.43-.43c0-.2-.08-.35-.23-.38l-8.12-5.6a.53.53,0,0,0-.49,0l-8.21,5.66a.43.43,0,0,0,.23.78h1.68v17.18a2.86,2.86,0,0,0,2.81,2.81h12.22a1.2,1.2,0,0,0,.29-.09.39.39,0,0,0,.08-.29A.43.43,0,0,0,406.26,297.44Z"/><path class="cls-10" d="M423.87,297.44c-.06,0-.09-.06-.14-.06a2,2,0,0,1-2-2V283.17h1.69a.45.45,0,0,0,.43-.44c0-.2-.09-.35-.23-.38l-8.12-5.6a.55.55,0,0,0-.5,0l-8.18,5.66a.39.39,0,0,0-.14.49.38.38,0,0,0,.37.29h1.69v12.25a2.85,2.85,0,0,0,2.81,2.81h12.21a1,1,0,0,0,.29-.09.36.36,0,0,0,.09-.29A.66.66,0,0,0,423.87,297.44Z"/><path class="cls-48" d="M434.69,326.73a23.82,23.82,0,0,0,16.11-17.91,26.94,26.94,0,0,0,.46-5.53V301.5c-1.34.19-2.67.43-4,.71a21.08,21.08,0,0,1-.41,3.39,23.74,23.74,0,0,1-16.1,17.91,25,25,0,0,1-7.49,1.09h-8.66c-.7,1-1.35,2.12-2,3.21H427.2A25.18,25.18,0,0,0,434.69,326.73Z"/><path class="cls-5" d="M414.62,324.6h8.66a25,25,0,0,0,7.49-1.09,23.74,23.74,0,0,0,16.1-17.91,21.08,21.08,0,0,0,.41-3.39A53.12,53.12,0,0,0,414.62,324.6Z"/><path class="cls-13" d="M495.11,354.43H471.86v6.64h15.95a30.17,30.17,0,0,1-19.27,21.61l-38.25-38.21a30,30,0,0,1,28.25-20,30.76,30.76,0,0,1,24.6,12.63l5-4.31A36.51,36.51,0,0,0,423,346.44l43.83,43.87C482.81,386.33,495.11,371.73,495.11,354.43Z"/><path class="cls-13" d="M422,354.76A35.48,35.48,0,0,0,432.63,380a36,36,0,0,0,25.25,10.63Z"/><path class="cls-56" d="M458.54,307.9a46.53,46.53,0,1,0,46.53,46.53A46.68,46.68,0,0,0,458.54,307.9Zm-25.91,72.44A36.05,36.05,0,0,1,422,355.09L458.25,391C448.91,390.67,439.6,387.35,432.63,380.34Zm33.9,9.64L423,346.44a36.51,36.51,0,0,1,65.11-13.61l-5,4.31a30.63,30.63,0,0,0-24.56-12.63,30.25,30.25,0,0,0-28.25,19.93l38.21,38.24a30.13,30.13,0,0,0,19.27-21.61H471.83v-6.64h23.24A36.56,36.56,0,0,1,466.53,390Z"/><path class="cls-11" d="M453,102.52h62.28a26.3,26.3,0,0,1,8.83,1.5,24.92,24.92,0,0,1,16.07,19.59,29.51,29.51,0,0,1,.31,4.87v60.75A28.72,28.72,0,0,1,540,195a25,25,0,0,1-16.91,18.8,26.47,26.47,0,0,1-7.86,1.15c-1.19,0-62.42,0-63.34-.05a25.09,25.09,0,0,1-12.65-4.17,25.45,25.45,0,0,1-8.57-9.84,24.91,24.91,0,0,1-2.5-10.94V127.52a23.25,23.25,0,0,1,2.33-10.77,24.94,24.94,0,0,1,8.48-9.88,24.55,24.55,0,0,1,12.6-4.26A7.17,7.17,0,0,1,453,102.52Z"/><path class="cls-13" d="M448.9,99.15h62.29a26.19,26.19,0,0,1,8.82,1.49,24.94,24.94,0,0,1,16.08,19.59,30.76,30.76,0,0,1,.31,4.88v60.74a28.11,28.11,0,0,1-.49,5.8A25,25,0,0,1,519,210.45a26.37,26.37,0,0,1-7.86,1.14c-1.18,0-62.41,0-63.33,0a25.06,25.06,0,0,1-12.65-4.17,25.37,25.37,0,0,1-8.57-9.84,24.77,24.77,0,0,1-2.5-10.94V124.14a23.36,23.36,0,0,1,2.32-10.76,25,25,0,0,1,8.48-9.88,24.62,24.62,0,0,1,12.61-4.26A7.12,7.12,0,0,1,448.9,99.15Z"/><g id="contentful"><g id="Social-media"><g id="Icon_social-github" data-name="Icon/social-github"><path class="cls-57" d="M518.05,161.24A35.69,35.69,0,1,0,470.78,195a3.27,3.27,0,0,0,1.79-2.67v-7a35.43,35.43,0,0,1-3.74.19c-5.53,0-7.32-3.58-8.22-5.53a11.23,11.23,0,0,0-3.93-4.83c-.88-.53-1.07-1.25,0-1.41,5-.89,6.25,5.52,9.45,6.59a10.14,10.14,0,0,0,7-.53,7,7,0,0,1,2.86-4.65c-8.39-.72-13.38-3.74-15.89-8.38l-.34-.54-.73-1.41-.18-.53a22.67,22.67,0,0,1-1.26-8c0-5.36,1.6-7.31,3.93-10.17a14.49,14.49,0,0,1,.53-10.36s3.58-.72,10.52,4.11c3.74-1.6,13.56-1.78,18.39-.34,2.86-2,8.22-4.65,10.17-3.74.54.88,1.79,3.58.72,9.45.72,1.25,4.46,4.11,4.46,11.77a28.45,28.45,0,0,1-.88,7.32l-.35,1.06s-.18.54-.34.88l-.19.54c-2.51,5.36-7.5,7.5-15.88,8.22,2.67,1.6,3.39,3.74,3.39,9.45v7.66a3.75,3.75,0,0,0,1.78,2.67,35.12,35.12,0,0,0,24.24-33.55"/></g></g></g><ellipse class="cls-58" cx="188.53" cy="378.83" rx="56.04" ry="29.17"/><path class="cls-59" d="M148.22,396.1,154.36,365h14.21c6.14.38,9.21,3.45,9.21,8.83,0,9.21-7.3,14.58-13.82,14.2h-6.91l-1.54,8.06Zm10.37-13.82,1.91-11.52h5c2.69,0,4.61,1.16,4.61,3.46-.38,6.53-3.45,7.68-6.91,8.06ZM176.35,388,182.49,357h7.3L188.25,365h6.91c6.14.38,8.45,3.45,7.68,7.29L200.15,388h-7.68l2.69-14.2c.38-1.92.38-3.08-2.3-3.08H187.1L183.64,388Zm23.31,8.06L205.8,365H220c6.15.38,9.22,3.45,9.22,8.83,0,9.21-7.3,14.58-13.82,14.2h-6.91L207,396.1ZM210,382.28l1.92-11.52h5c2.69,0,4.61,1.16,4.61,3.46-.38,6.53-3.46,7.68-6.91,8.06Z"/></svg>